<?xml version="1.0" encoding="UTF-8" standalone="no"?>
<!-- Created with Inkscape (http://www.inkscape.org/) -->

<svg
   xmlns:dc="http://purl.org/dc/elements/1.1/"
   xmlns:cc="http://creativecommons.org/ns#"
   xmlns:rdf="http://www.w3.org/1999/02/22-rdf-syntax-ns#"
   xmlns:svg="http://www.w3.org/2000/svg"
   xmlns="http://www.w3.org/2000/svg"
   xmlns:sodipodi="http://sodipodi.sourceforge.net/DTD/sodipodi-0.dtd"
   xmlns:inkscape="http://www.inkscape.org/namespaces/inkscape"
   width="744.09448819"
   height="1052.3622047"
   id="svg2"
   version="1.1"
   inkscape:version="0.48.3.1 r9886"
   sodipodi:docname="styles.svg"
   inkscape:export-filename="C:\home\dev\html\workspace\webgl-remembery\concept\styles.png"
   inkscape:export-xdpi="90"
   inkscape:export-ydpi="90">
  <defs
     id="defs4">
    <clipPath
       clipPathUnits="userSpaceOnUse"
       id="clipPath4274">
      <rect
         style="color:#000000;fill:#cccccc;fill-opacity:1;fill-rule:nonzero;stroke:none;stroke-width:2;marker:none;visibility:visible;display:inline;overflow:visible;enable-background:accumulate"
         id="rect4276"
         width="128"
         height="128"
         x="408"
         y="708.36218" />
    </clipPath>
  </defs>
  <sodipodi:namedview
     id="base"
     pagecolor="#ffffff"
     bordercolor="#666666"
     borderopacity="1.0"
     inkscape:pageopacity="0.0"
     inkscape:pageshadow="2"
     inkscape:zoom="1.979899"
     inkscape:cx="350.63292"
     inkscape:cy="299.70511"
     inkscape:document-units="px"
     inkscape:current-layer="layer1"
     showgrid="true"
     inkscape:window-width="1920"
     inkscape:window-height="1018"
     inkscape:window-x="-8"
     inkscape:window-y="-8"
     inkscape:window-maximized="1">
    <inkscape:grid
       type="xygrid"
       id="grid2985"
       empspacing="4"
       visible="true"
       enabled="true"
       snapvisiblegridlinesonly="true" />
  </sodipodi:namedview>
  <metadata
     id="metadata7">
    <rdf:RDF>
      <cc:Work
         rdf:about="">
        <dc:format>image/svg+xml</dc:format>
        <dc:type
           rdf:resource="http://purl.org/dc/dcmitype/StillImage" />
        <dc:title></dc:title>
      </cc:Work>
    </rdf:RDF>
  </metadata>
  <g
     inkscape:label="Layer 1"
     inkscape:groupmode="layer"
     id="layer1">
    <g
       id="g3888"
       inkscape:export-filename="C:\home\dev\html\workspace\webgl-remembery\asset\background.png"
       inkscape:export-xdpi="90"
       inkscape:export-ydpi="90">
      <rect
         y="396.36218"
         x="260"
         height="128"
         width="128"
         id="rect2989"
         style="color:#000000;fill:#ffffff;fill-opacity:1;fill-rule:nonzero;stroke:none;stroke-width:2;marker:none;visibility:visible;display:inline;overflow:visible;enable-background:accumulate" />
      <rect
         style="color:#000000;fill:#000000;fill-opacity:0.25098041;fill-rule:nonzero;stroke:none;stroke-width:2;marker:none;visibility:visible;display:inline;overflow:visible;enable-background:accumulate"
         id="rect3761"
         width="64"
         height="64"
         x="260"
         y="396.36218" />
      <g
         style="color:#000000;fill:#000000;fill-opacity:0.25098039000000000;fill-rule:nonzero;stroke:none;stroke-width:2;marker:none;visibility:visible;display:inline;overflow:visible;enable-background:accumulate"
         id="g3798">
        <path
           style="fill:#000000;stroke:none;stroke-width:2;stroke-linecap:butt;stroke-linejoin:miter;stroke-opacity:1;color:#000000;fill-opacity:0.25098039000000000;fill-rule:nonzero;marker:none;visibility:visible;display:inline;overflow:visible;enable-background:accumulate"
           d="m 336,460.36218 -12,-12 0,-8 20,20 z"
           id="path3763"
           inkscape:connector-curvature="0"
           sodipodi:nodetypes="ccccc" />
        <path
           style="fill:#000000;stroke:none;stroke-width:2;stroke-linecap:butt;stroke-linejoin:miter;stroke-opacity:1;color:#000000;fill-opacity:0.25098039000000000;fill-rule:nonzero;marker:none;visibility:visible;display:inline;overflow:visible;enable-background:accumulate"
           d="m 352,460.36218 -28,-28 0,-8 36,36 z"
           id="path3765"
           inkscape:connector-curvature="0"
           sodipodi:nodetypes="ccccc" />
        <path
           style="fill:#000000;stroke:none;stroke-width:2;stroke-linecap:butt;stroke-linejoin:miter;stroke-opacity:1;color:#000000;fill-opacity:0.25098039000000000;fill-rule:nonzero;marker:none;visibility:visible;display:inline;overflow:visible;enable-background:accumulate"
           d="m 368,460.36218 -44,-44 0,-8 52,52 z"
           id="path3767"
           inkscape:connector-curvature="0"
           sodipodi:nodetypes="ccccc" />
        <path
           style="fill:#000000;stroke:none;stroke-width:2;stroke-linecap:butt;stroke-linejoin:miter;stroke-opacity:1;color:#000000;fill-opacity:0.25098039000000000;fill-rule:nonzero;marker:none;visibility:visible;display:inline;overflow:visible;enable-background:accumulate"
           d="m 384,460.36218 -60,-60 0,-4 4,0 60,60 0,4 z"
           id="path3769"
           inkscape:connector-curvature="0" />
        <path
           style="fill:#000000;stroke:none;stroke-width:2;stroke-linecap:butt;stroke-linejoin:miter;stroke-opacity:1;color:#000000;fill-opacity:0.25098039000000000;fill-rule:nonzero;marker:none;visibility:visible;display:inline;overflow:visible;enable-background:accumulate"
           d="m 388,448.36218 -52,-52 8,0 44,44 z"
           id="path3771"
           inkscape:connector-curvature="0" />
        <path
           style="fill:#000000;stroke:none;stroke-width:2;stroke-linecap:butt;stroke-linejoin:miter;stroke-opacity:1;color:#000000;fill-opacity:0.25098039000000000;fill-rule:nonzero;marker:none;visibility:visible;display:inline;overflow:visible;enable-background:accumulate"
           d="m 352,396.36218 36,36 0,-8 -28,-28 -8,0 z"
           id="path3773"
           inkscape:connector-curvature="0" />
        <path
           style="fill:#000000;stroke:none;stroke-width:2;stroke-linecap:butt;stroke-linejoin:miter;stroke-opacity:1;color:#000000;fill-opacity:0.25098039000000000;fill-rule:nonzero;marker:none;visibility:visible;display:inline;overflow:visible;enable-background:accumulate"
           d="m 368,396.36218 8,0 12,12 0,8 -20,-20 z"
           id="path3775"
           inkscape:connector-curvature="0" />
        <path
           style="fill:#000000;stroke:none;stroke-width:2;stroke-linecap:butt;stroke-linejoin:miter;stroke-opacity:1;color:#000000;fill-opacity:0.25098039000000000;fill-rule:nonzero;marker:none;visibility:visible;display:inline;overflow:visible;enable-background:accumulate"
           d="m 384,396.36218 4,4 0,-4 z"
           id="path3777"
           inkscape:connector-curvature="0" />
        <path
           style="fill:#000000;stroke:none;stroke-width:2;stroke-linecap:butt;stroke-linejoin:miter;stroke-opacity:1;color:#000000;fill-opacity:0.25098039000000000;fill-rule:nonzero;marker:none;visibility:visible;display:inline;overflow:visible;enable-background:accumulate"
           d="m 324,456.36218 4,4 -4,0 z"
           id="path3779"
           inkscape:connector-curvature="0" />
      </g>
      <g
         transform="matrix(-1,0,0,1,712,0)"
         id="g3826"
         style="color:#000000;fill:#000000;fill-opacity:0.25098039;fill-rule:nonzero;stroke:none;stroke-width:2;marker:none;visibility:visible;display:inline;overflow:visible;enable-background:accumulate">
        <path
           sodipodi:nodetypes="ccccc"
           inkscape:connector-curvature="0"
           id="path3828"
           d="m 336,460.36218 -12,-12 0,-8 20,20 z"
           style="color:#000000;fill:#000000;fill-opacity:0.25098039;fill-rule:nonzero;stroke:none;stroke-width:2;marker:none;visibility:visible;display:inline;overflow:visible;enable-background:accumulate" />
        <path
           sodipodi:nodetypes="ccccc"
           inkscape:connector-curvature="0"
           id="path3830"
           d="m 352,460.36218 -28,-28 0,-8 36,36 z"
           style="color:#000000;fill:#000000;fill-opacity:0.25098039;fill-rule:nonzero;stroke:none;stroke-width:2;marker:none;visibility:visible;display:inline;overflow:visible;enable-background:accumulate" />
        <path
           sodipodi:nodetypes="ccccc"
           inkscape:connector-curvature="0"
           id="path3832"
           d="m 368,460.36218 -44,-44 0,-8 52,52 z"
           style="color:#000000;fill:#000000;fill-opacity:0.25098039;fill-rule:nonzero;stroke:none;stroke-width:2;marker:none;visibility:visible;display:inline;overflow:visible;enable-background:accumulate" />
        <path
           inkscape:connector-curvature="0"
           id="path3834"
           d="m 384,460.36218 -60,-60 0,-4 4,0 60,60 0,4 z"
           style="color:#000000;fill:#000000;fill-opacity:0.25098039;fill-rule:nonzero;stroke:none;stroke-width:2;marker:none;visibility:visible;display:inline;overflow:visible;enable-background:accumulate" />
        <path
           inkscape:connector-curvature="0"
           id="path3836"
           d="m 388,448.36218 -52,-52 8,0 44,44 z"
           style="color:#000000;fill:#000000;fill-opacity:0.25098039;fill-rule:nonzero;stroke:none;stroke-width:2;marker:none;visibility:visible;display:inline;overflow:visible;enable-background:accumulate" />
        <path
           inkscape:connector-curvature="0"
           id="path3838"
           d="m 352,396.36218 36,36 0,-8 -28,-28 -8,0 z"
           style="color:#000000;fill:#000000;fill-opacity:0.25098039;fill-rule:nonzero;stroke:none;stroke-width:2;marker:none;visibility:visible;display:inline;overflow:visible;enable-background:accumulate" />
        <path
           inkscape:connector-curvature="0"
           id="path3840"
           d="m 368,396.36218 8,0 12,12 0,8 -20,-20 z"
           style="color:#000000;fill:#000000;fill-opacity:0.25098039;fill-rule:nonzero;stroke:none;stroke-width:2;marker:none;visibility:visible;display:inline;overflow:visible;enable-background:accumulate" />
        <path
           inkscape:connector-curvature="0"
           id="path3842"
           d="m 384,396.36218 4,4 0,-4 z"
           style="color:#000000;fill:#000000;fill-opacity:0.25098039;fill-rule:nonzero;stroke:none;stroke-width:2;marker:none;visibility:visible;display:inline;overflow:visible;enable-background:accumulate" />
        <path
           inkscape:connector-curvature="0"
           id="path3844"
           d="m 324,456.36218 4,4 -4,0 z"
           style="color:#000000;fill:#000000;fill-opacity:0.25098039;fill-rule:nonzero;stroke:none;stroke-width:2;marker:none;visibility:visible;display:inline;overflow:visible;enable-background:accumulate" />
      </g>
      <g
         transform="translate(-64,64.000003)"
         id="g3846"
         style="color:#000000;fill:#000000;fill-opacity:0.25098039;fill-rule:nonzero;stroke:none;stroke-width:2;marker:none;visibility:visible;display:inline;overflow:visible;enable-background:accumulate">
        <path
           sodipodi:nodetypes="ccccc"
           inkscape:connector-curvature="0"
           id="path3848"
           d="m 336,460.36218 -12,-12 0,-8 20,20 z"
           style="color:#000000;fill:#000000;fill-opacity:0.25098039;fill-rule:nonzero;stroke:none;stroke-width:2;marker:none;visibility:visible;display:inline;overflow:visible;enable-background:accumulate" />
        <path
           sodipodi:nodetypes="ccccc"
           inkscape:connector-curvature="0"
           id="path3850"
           d="m 352,460.36218 -28,-28 0,-8 36,36 z"
           style="color:#000000;fill:#000000;fill-opacity:0.25098039;fill-rule:nonzero;stroke:none;stroke-width:2;marker:none;visibility:visible;display:inline;overflow:visible;enable-background:accumulate" />
        <path
           sodipodi:nodetypes="ccccc"
           inkscape:connector-curvature="0"
           id="path3852"
           d="m 368,460.36218 -44,-44 0,-8 52,52 z"
           style="color:#000000;fill:#000000;fill-opacity:0.25098039;fill-rule:nonzero;stroke:none;stroke-width:2;marker:none;visibility:visible;display:inline;overflow:visible;enable-background:accumulate" />
        <path
           inkscape:connector-curvature="0"
           id="path3854"
           d="m 384,460.36218 -60,-60 0,-4 4,0 60,60 0,4 z"
           style="color:#000000;fill:#000000;fill-opacity:0.25098039;fill-rule:nonzero;stroke:none;stroke-width:2;marker:none;visibility:visible;display:inline;overflow:visible;enable-background:accumulate" />
        <path
           inkscape:connector-curvature="0"
           id="path3856"
           d="m 388,448.36218 -52,-52 8,0 44,44 z"
           style="color:#000000;fill:#000000;fill-opacity:0.25098039;fill-rule:nonzero;stroke:none;stroke-width:2;marker:none;visibility:visible;display:inline;overflow:visible;enable-background:accumulate" />
        <path
           inkscape:connector-curvature="0"
           id="path3858"
           d="m 352,396.36218 36,36 0,-8 -28,-28 -8,0 z"
           style="color:#000000;fill:#000000;fill-opacity:0.25098039;fill-rule:nonzero;stroke:none;stroke-width:2;marker:none;visibility:visible;display:inline;overflow:visible;enable-background:accumulate" />
        <path
           inkscape:connector-curvature="0"
           id="path3860"
           d="m 368,396.36218 8,0 12,12 0,8 -20,-20 z"
           style="color:#000000;fill:#000000;fill-opacity:0.25098039;fill-rule:nonzero;stroke:none;stroke-width:2;marker:none;visibility:visible;display:inline;overflow:visible;enable-background:accumulate" />
        <path
           inkscape:connector-curvature="0"
           id="path3862"
           d="m 384,396.36218 4,4 0,-4 z"
           style="color:#000000;fill:#000000;fill-opacity:0.25098039;fill-rule:nonzero;stroke:none;stroke-width:2;marker:none;visibility:visible;display:inline;overflow:visible;enable-background:accumulate" />
        <path
           inkscape:connector-curvature="0"
           id="path3864"
           d="m 324,456.36218 4,4 -4,0 z"
           style="color:#000000;fill:#000000;fill-opacity:0.25098039;fill-rule:nonzero;stroke:none;stroke-width:2;marker:none;visibility:visible;display:inline;overflow:visible;enable-background:accumulate" />
      </g>
      <g
         style="color:#000000;fill:#000000;fill-opacity:0.25098039;fill-rule:nonzero;stroke:none;stroke-width:2;marker:none;visibility:visible;display:inline;overflow:visible;enable-background:accumulate"
         id="g3866"
         transform="matrix(-1,0,0,1,648,64.000003)">
        <path
           style="color:#000000;fill:#000000;fill-opacity:0.25098039;fill-rule:nonzero;stroke:none;stroke-width:2;marker:none;visibility:visible;display:inline;overflow:visible;enable-background:accumulate"
           d="m 336,460.36218 -12,-12 0,-8 20,20 z"
           id="path3868"
           inkscape:connector-curvature="0"
           sodipodi:nodetypes="ccccc" />
        <path
           style="color:#000000;fill:#000000;fill-opacity:0.25098039;fill-rule:nonzero;stroke:none;stroke-width:2;marker:none;visibility:visible;display:inline;overflow:visible;enable-background:accumulate"
           d="m 352,460.36218 -28,-28 0,-8 36,36 z"
           id="path3870"
           inkscape:connector-curvature="0"
           sodipodi:nodetypes="ccccc" />
        <path
           style="color:#000000;fill:#000000;fill-opacity:0.25098039;fill-rule:nonzero;stroke:none;stroke-width:2;marker:none;visibility:visible;display:inline;overflow:visible;enable-background:accumulate"
           d="m 368,460.36218 -44,-44 0,-8 52,52 z"
           id="path3872"
           inkscape:connector-curvature="0"
           sodipodi:nodetypes="ccccc" />
        <path
           style="color:#000000;fill:#000000;fill-opacity:0.25098039;fill-rule:nonzero;stroke:none;stroke-width:2;marker:none;visibility:visible;display:inline;overflow:visible;enable-background:accumulate"
           d="m 384,460.36218 -60,-60 0,-4 4,0 60,60 0,4 z"
           id="path3874"
           inkscape:connector-curvature="0" />
        <path
           style="color:#000000;fill:#000000;fill-opacity:0.25098039;fill-rule:nonzero;stroke:none;stroke-width:2;marker:none;visibility:visible;display:inline;overflow:visible;enable-background:accumulate"
           d="m 388,448.36218 -52,-52 8,0 44,44 z"
           id="path3876"
           inkscape:connector-curvature="0" />
        <path
           style="color:#000000;fill:#000000;fill-opacity:0.25098039;fill-rule:nonzero;stroke:none;stroke-width:2;marker:none;visibility:visible;display:inline;overflow:visible;enable-background:accumulate"
           d="m 352,396.36218 36,36 0,-8 -28,-28 -8,0 z"
           id="path3878"
           inkscape:connector-curvature="0" />
        <path
           style="color:#000000;fill:#000000;fill-opacity:0.25098039;fill-rule:nonzero;stroke:none;stroke-width:2;marker:none;visibility:visible;display:inline;overflow:visible;enable-background:accumulate"
           d="m 368,396.36218 8,0 12,12 0,8 -20,-20 z"
           id="path3880"
           inkscape:connector-curvature="0" />
        <path
           style="color:#000000;fill:#000000;fill-opacity:0.25098039;fill-rule:nonzero;stroke:none;stroke-width:2;marker:none;visibility:visible;display:inline;overflow:visible;enable-background:accumulate"
           d="m 384,396.36218 4,4 0,-4 z"
           id="path3882"
           inkscape:connector-curvature="0" />
        <path
           style="color:#000000;fill:#000000;fill-opacity:0.25098039;fill-rule:nonzero;stroke:none;stroke-width:2;marker:none;visibility:visible;display:inline;overflow:visible;enable-background:accumulate"
           d="m 324,456.36218 4,4 -4,0 z"
           id="path3884"
           inkscape:connector-curvature="0" />
      </g>
      <rect
         y="396.36218"
         x="260"
         height="64"
         width="64"
         id="rect3886"
         style="color:#000000;fill:#000000;fill-opacity:0.25098041;fill-rule:nonzero;stroke:none;stroke-width:2;marker:none;visibility:visible;display:inline;overflow:visible;enable-background:accumulate" />
    </g>
    <rect
       style="color:#000000;fill:#0000ff;fill-opacity:1;fill-rule:nonzero;stroke:none;stroke-width:2;marker:none;visibility:visible;display:inline;overflow:visible;enable-background:accumulate"
       id="rect3933"
       width="128"
       height="128"
       x="408"
       y="396.36218" />
    <path
       style="fill:#8787de;stroke:none;stroke-width:1px;stroke-linecap:butt;stroke-linejoin:miter;stroke-opacity:1"
       d="m 472,460.36218 64,64 0,-32 z"
       id="path3952"
       inkscape:connector-curvature="0" />
    <path
       style="fill:#8787de;stroke:none;stroke-width:1px;stroke-linecap:butt;stroke-linejoin:miter;stroke-opacity:1"
       d="m 472,460.36218 64,0 0,-32 z"
       id="path3954"
       inkscape:connector-curvature="0" />
    <path
       style="fill:#8787de;stroke:none;stroke-width:1px;stroke-linecap:butt;stroke-linejoin:miter;stroke-opacity:1"
       d="m 472,460.36218 64,-64 -32,0 z"
       id="path3956"
       inkscape:connector-curvature="0" />
    <path
       style="fill:#8787de;stroke:none;stroke-width:1px;stroke-linecap:butt;stroke-linejoin:miter;stroke-opacity:1"
       d="m 472,460.36218 0,-64 -32,0 z"
       id="path3958"
       inkscape:connector-curvature="0" />
    <path
       style="fill:#8787de;stroke:none;stroke-width:1px;stroke-linecap:butt;stroke-linejoin:miter;stroke-opacity:1"
       d="m 472,460.36218 -64,-64 0,32 z"
       id="path3960"
       inkscape:connector-curvature="0"
       sodipodi:nodetypes="cccc" />
    <path
       style="fill:#8787de;stroke:none;stroke-width:1px;stroke-linecap:butt;stroke-linejoin:miter;stroke-opacity:1"
       d="m 472,460.36218 -64,0 0,32 z"
       id="path3962"
       inkscape:connector-curvature="0" />
    <path
       style="fill:#8787de;stroke:none;stroke-width:1px;stroke-linecap:butt;stroke-linejoin:miter;stroke-opacity:1"
       d="m 472,460.36218 -64,64 32,0 z"
       id="path3964"
       inkscape:connector-curvature="0" />
    <path
       style="fill:#8787de;stroke:none;stroke-width:1px;stroke-linecap:butt;stroke-linejoin:miter;stroke-opacity:1"
       d="m 472,460.36218 0,64 32,0 z"
       id="path3966"
       inkscape:connector-curvature="0" />
    <path
       sodipodi:type="arc"
       style="color:#000000;fill:#8787de;fill-opacity:1;fill-rule:nonzero;stroke:none;stroke-width:2;marker:none;visibility:visible;display:inline;overflow:visible;enable-background:accumulate"
       id="path3950"
       sodipodi:cx="460"
       sodipodi:cy="444.36218"
       sodipodi:rx="16"
       sodipodi:ry="16"
       d="m 476,444.36218 a 16,16 0 1 1 -32,0 16,16 0 1 1 32,0 z"
       transform="translate(12,16)" />
    <g
       id="g4191"
       clip-path="url(#clipPath4274)"
       inkscape:export-filename="C:\home\dev\html\workspace\webgl-remembery\asset\cardback.png"
       inkscape:export-xdpi="90"
       inkscape:export-ydpi="90">
      <rect
         y="708.36218"
         x="408"
         height="128"
         width="128"
         id="rect3968"
         style="color:#000000;fill:#f2f2f2;fill-opacity:1;fill-rule:nonzero;stroke:none;stroke-width:2;marker:none;visibility:visible;display:inline;overflow:visible;enable-background:accumulate" />
      <g
         id="g4030">
        <path
           style="fill:#808080;stroke:none"
           d="m 408,740.36217 16,8 16,-8 -16,-8 z"
           id="path3970"
           inkscape:connector-curvature="0"
           sodipodi:nodetypes="ccccc" />
        <path
           sodipodi:nodetypes="ccccc"
           inkscape:connector-curvature="0"
           id="path3972"
           d="m 440,740.36217 16,8 16,-8 -16,-8 z"
           style="fill:#808080;stroke:none" />
        <path
           style="fill:#808080;stroke:none"
           d="m 432,724.36217 8,16 8,-16 -8,-16 z"
           id="path3974"
           inkscape:connector-curvature="0"
           sodipodi:nodetypes="ccccc" />
        <path
           sodipodi:nodetypes="ccccc"
           inkscape:connector-curvature="0"
           id="path3976"
           d="m 432,756.36217 8,16 8,-16 -8,-16 z"
           style="fill:#808080;stroke:none" />
        <path
           sodipodi:type="arc"
           style="color:#000000;fill:#4d4d4d;fill-opacity:1;fill-rule:nonzero;stroke:none;stroke-width:2;marker:none;visibility:visible;display:inline;overflow:visible;enable-background:accumulate"
           id="path3978"
           sodipodi:cx="616"
           sodipodi:cy="460.36218"
           sodipodi:rx="8"
           sodipodi:ry="8"
           d="m 624,460.36218 a 8,8 0 1 1 -16,0 8,8 0 1 1 16,0 z"
           transform="translate(-176,279.99999)" />
      </g>
      <g
         transform="translate(64,1.2617188e-5)"
         id="g4037">
        <path
           sodipodi:nodetypes="ccccc"
           inkscape:connector-curvature="0"
           id="path4039"
           d="m 408,740.36217 16,8 16,-8 -16,-8 z"
           style="fill:#808080;stroke:none" />
        <path
           style="fill:#808080;stroke:none"
           d="m 440,740.36217 16,8 16,-8 -16,-8 z"
           id="path4041"
           inkscape:connector-curvature="0"
           sodipodi:nodetypes="ccccc" />
        <path
           sodipodi:nodetypes="ccccc"
           inkscape:connector-curvature="0"
           id="path4043"
           d="m 432,724.36217 8,16 8,-16 -8,-16 z"
           style="fill:#808080;stroke:none" />
        <path
           style="fill:#808080;stroke:none"
           d="m 432,756.36217 8,16 8,-16 -8,-16 z"
           id="path4045"
           inkscape:connector-curvature="0"
           sodipodi:nodetypes="ccccc" />
        <path
           transform="translate(-176,279.99999)"
           d="m 624,460.36218 c 0,4.41828 -3.58172,8 -8,8 -4.41828,0 -8,-3.58172 -8,-8 0,-4.41828 3.58172,-8 8,-8 4.41828,0 8,3.58172 8,8 z"
           sodipodi:ry="8"
           sodipodi:rx="8"
           sodipodi:cy="460.36218"
           sodipodi:cx="616"
           id="path4047"
           style="color:#000000;fill:#4d4d4d;fill-opacity:1;fill-rule:nonzero;stroke:none;stroke-width:2;marker:none;visibility:visible;display:inline;overflow:visible;enable-background:accumulate"
           sodipodi:type="arc" />
      </g>
      <g
         id="g4049"
         transform="translate(64,64.00001)">
        <path
           style="fill:#808080;stroke:none"
           d="m 408,740.36217 16,8 16,-8 -16,-8 z"
           id="path4051"
           inkscape:connector-curvature="0"
           sodipodi:nodetypes="ccccc" />
        <path
           sodipodi:nodetypes="ccccc"
           inkscape:connector-curvature="0"
           id="path4053"
           d="m 440,740.36217 16,8 16,-8 -16,-8 z"
           style="fill:#808080;stroke:none" />
        <path
           style="fill:#808080;stroke:none"
           d="m 432,724.36217 8,16 8,-16 -8,-16 z"
           id="path4055"
           inkscape:connector-curvature="0"
           sodipodi:nodetypes="ccccc" />
        <path
           sodipodi:nodetypes="ccccc"
           inkscape:connector-curvature="0"
           id="path4057"
           d="m 432,756.36217 8,16 8,-16 -8,-16 z"
           style="fill:#808080;stroke:none" />
        <path
           sodipodi:type="arc"
           style="color:#000000;fill:#4d4d4d;fill-opacity:1;fill-rule:nonzero;stroke:none;stroke-width:2;marker:none;visibility:visible;display:inline;overflow:visible;enable-background:accumulate"
           id="path4059"
           sodipodi:cx="616"
           sodipodi:cy="460.36218"
           sodipodi:rx="8"
           sodipodi:ry="8"
           d="m 624,460.36218 c 0,4.41828 -3.58172,8 -8,8 -4.41828,0 -8,-3.58172 -8,-8 0,-4.41828 3.58172,-8 8,-8 4.41828,0 8,3.58172 8,8 z"
           transform="translate(-176,279.99999)" />
      </g>
      <g
         transform="translate(0,64.000013)"
         id="g4061">
        <path
           sodipodi:nodetypes="ccccc"
           inkscape:connector-curvature="0"
           id="path4063"
           d="m 408,740.36217 16,8 16,-8 -16,-8 z"
           style="fill:#808080;stroke:none" />
        <path
           style="fill:#808080;stroke:none"
           d="m 440,740.36217 16,8 16,-8 -16,-8 z"
           id="path4065"
           inkscape:connector-curvature="0"
           sodipodi:nodetypes="ccccc" />
        <path
           sodipodi:nodetypes="ccccc"
           inkscape:connector-curvature="0"
           id="path4067"
           d="m 432,724.36217 8,16 8,-16 -8,-16 z"
           style="fill:#808080;stroke:none" />
        <path
           style="fill:#808080;stroke:none"
           d="m 432,756.36217 8,16 8,-16 -8,-16 z"
           id="path4069"
           inkscape:connector-curvature="0"
           sodipodi:nodetypes="ccccc" />
        <path
           transform="translate(-176,279.99999)"
           d="m 624,460.36218 c 0,4.41828 -3.58172,8 -8,8 -4.41828,0 -8,-3.58172 -8,-8 0,-4.41828 3.58172,-8 8,-8 4.41828,0 8,3.58172 8,8 z"
           sodipodi:ry="8"
           sodipodi:rx="8"
           sodipodi:cy="460.36218"
           sodipodi:cx="616"
           id="path4071"
           style="color:#000000;fill:#4d4d4d;fill-opacity:1;fill-rule:nonzero;stroke:none;stroke-width:2;marker:none;visibility:visible;display:inline;overflow:visible;enable-background:accumulate"
           sodipodi:type="arc" />
      </g>
      <g
         id="g4073"
         transform="translate(32,32.000013)">
        <path
           style="fill:#808080;stroke:none"
           d="m 408,740.36217 16,8 16,-8 -16,-8 z"
           id="path4075"
           inkscape:connector-curvature="0"
           sodipodi:nodetypes="ccccc" />
        <path
           sodipodi:nodetypes="ccccc"
           inkscape:connector-curvature="0"
           id="path4077"
           d="m 440,740.36217 16,8 16,-8 -16,-8 z"
           style="fill:#808080;stroke:none" />
        <path
           style="fill:#808080;stroke:none"
           d="m 432,724.36217 8,16 8,-16 -8,-16 z"
           id="path4079"
           inkscape:connector-curvature="0"
           sodipodi:nodetypes="ccccc" />
        <path
           sodipodi:nodetypes="ccccc"
           inkscape:connector-curvature="0"
           id="path4081"
           d="m 432,756.36217 8,16 8,-16 -8,-16 z"
           style="fill:#808080;stroke:none" />
        <path
           sodipodi:type="arc"
           style="color:#000000;fill:#4d4d4d;fill-opacity:1;fill-rule:nonzero;stroke:none;stroke-width:2;marker:none;visibility:visible;display:inline;overflow:visible;enable-background:accumulate"
           id="path4083"
           sodipodi:cx="616"
           sodipodi:cy="460.36218"
           sodipodi:rx="8"
           sodipodi:ry="8"
           d="m 624,460.36218 c 0,4.41828 -3.58172,8 -8,8 -4.41828,0 -8,-3.58172 -8,-8 0,-4.41828 3.58172,-8 8,-8 4.41828,0 8,3.58172 8,8 z"
           transform="translate(-176,279.99999)" />
      </g>
      <g
         transform="translate(-32,32.00001)"
         id="g4085">
        <path
           sodipodi:nodetypes="ccccc"
           inkscape:connector-curvature="0"
           id="path4087"
           d="m 408,740.36217 16,8 16,-8 -16,-8 z"
           style="fill:#808080;stroke:none" />
        <path
           style="fill:#808080;stroke:none"
           d="m 440,740.36217 16,8 16,-8 -16,-8 z"
           id="path4089"
           inkscape:connector-curvature="0"
           sodipodi:nodetypes="ccccc" />
        <path
           sodipodi:nodetypes="ccccc"
           inkscape:connector-curvature="0"
           id="path4091"
           d="m 432,724.36217 8,16 8,-16 -8,-16 z"
           style="fill:#808080;stroke:none" />
        <path
           style="fill:#808080;stroke:none"
           d="m 432,756.36217 8,16 8,-16 -8,-16 z"
           id="path4093"
           inkscape:connector-curvature="0"
           sodipodi:nodetypes="ccccc" />
        <path
           transform="translate(-176,279.99999)"
           d="m 624,460.36218 c 0,4.41828 -3.58172,8 -8,8 -4.41828,0 -8,-3.58172 -8,-8 0,-4.41828 3.58172,-8 8,-8 4.41828,0 8,3.58172 8,8 z"
           sodipodi:ry="8"
           sodipodi:rx="8"
           sodipodi:cy="460.36218"
           sodipodi:cx="616"
           id="path4095"
           style="color:#000000;fill:#4d4d4d;fill-opacity:1;fill-rule:nonzero;stroke:none;stroke-width:2;marker:none;visibility:visible;display:inline;overflow:visible;enable-background:accumulate"
           sodipodi:type="arc" />
      </g>
      <g
         id="g4097"
         transform="translate(-32,-31.999987)">
        <path
           style="fill:#808080;stroke:none"
           d="m 408,740.36217 16,8 16,-8 -16,-8 z"
           id="path4099"
           inkscape:connector-curvature="0"
           sodipodi:nodetypes="ccccc" />
        <path
           sodipodi:nodetypes="ccccc"
           inkscape:connector-curvature="0"
           id="path4101"
           d="m 440,740.36217 16,8 16,-8 -16,-8 z"
           style="fill:#808080;stroke:none" />
        <path
           style="fill:#808080;stroke:none"
           d="m 432,724.36217 8,16 8,-16 -8,-16 z"
           id="path4103"
           inkscape:connector-curvature="0"
           sodipodi:nodetypes="ccccc" />
        <path
           sodipodi:nodetypes="ccccc"
           inkscape:connector-curvature="0"
           id="path4105"
           d="m 432,756.36217 8,16 8,-16 -8,-16 z"
           style="fill:#808080;stroke:none" />
        <path
           sodipodi:type="arc"
           style="color:#000000;fill:#4d4d4d;fill-opacity:1;fill-rule:nonzero;stroke:none;stroke-width:2;marker:none;visibility:visible;display:inline;overflow:visible;enable-background:accumulate"
           id="path4107"
           sodipodi:cx="616"
           sodipodi:cy="460.36218"
           sodipodi:rx="8"
           sodipodi:ry="8"
           d="m 624,460.36218 c 0,4.41828 -3.58172,8 -8,8 -4.41828,0 -8,-3.58172 -8,-8 0,-4.41828 3.58172,-8 8,-8 4.41828,0 8,3.58172 8,8 z"
           transform="translate(-176,279.99999)" />
      </g>
      <g
         transform="translate(32,-31.999987)"
         id="g4109">
        <path
           sodipodi:nodetypes="ccccc"
           inkscape:connector-curvature="0"
           id="path4111"
           d="m 408,740.36217 16,8 16,-8 -16,-8 z"
           style="fill:#808080;stroke:none" />
        <path
           style="fill:#808080;stroke:none"
           d="m 440,740.36217 16,8 16,-8 -16,-8 z"
           id="path4113"
           inkscape:connector-curvature="0"
           sodipodi:nodetypes="ccccc" />
        <path
           sodipodi:nodetypes="ccccc"
           inkscape:connector-curvature="0"
           id="path4115"
           d="m 432,724.36217 8,16 8,-16 -8,-16 z"
           style="fill:#808080;stroke:none" />
        <path
           style="fill:#808080;stroke:none"
           d="m 432,756.36217 8,16 8,-16 -8,-16 z"
           id="path4117"
           inkscape:connector-curvature="0"
           sodipodi:nodetypes="ccccc" />
        <path
           transform="translate(-176,279.99999)"
           d="m 624,460.36218 c 0,4.41828 -3.58172,8 -8,8 -4.41828,0 -8,-3.58172 -8,-8 0,-4.41828 3.58172,-8 8,-8 4.41828,0 8,3.58172 8,8 z"
           sodipodi:ry="8"
           sodipodi:rx="8"
           sodipodi:cy="460.36218"
           sodipodi:cx="616"
           id="path4119"
           style="color:#000000;fill:#4d4d4d;fill-opacity:1;fill-rule:nonzero;stroke:none;stroke-width:2;marker:none;visibility:visible;display:inline;overflow:visible;enable-background:accumulate"
           sodipodi:type="arc" />
      </g>
      <g
         id="g4121"
         transform="translate(96,-31.99999)">
        <path
           style="fill:#808080;stroke:none"
           d="m 408,740.36217 16,8 16,-8 -16,-8 z"
           id="path4123"
           inkscape:connector-curvature="0"
           sodipodi:nodetypes="ccccc" />
        <path
           sodipodi:nodetypes="ccccc"
           inkscape:connector-curvature="0"
           id="path4125"
           d="m 440,740.36217 16,8 16,-8 -16,-8 z"
           style="fill:#808080;stroke:none" />
        <path
           style="fill:#808080;stroke:none"
           d="m 432,724.36217 8,16 8,-16 -8,-16 z"
           id="path4127"
           inkscape:connector-curvature="0"
           sodipodi:nodetypes="ccccc" />
        <path
           sodipodi:nodetypes="ccccc"
           inkscape:connector-curvature="0"
           id="path4129"
           d="m 432,756.36217 8,16 8,-16 -8,-16 z"
           style="fill:#808080;stroke:none" />
        <path
           sodipodi:type="arc"
           style="color:#000000;fill:#4d4d4d;fill-opacity:1;fill-rule:nonzero;stroke:none;stroke-width:2;marker:none;visibility:visible;display:inline;overflow:visible;enable-background:accumulate"
           id="path4131"
           sodipodi:cx="616"
           sodipodi:cy="460.36218"
           sodipodi:rx="8"
           sodipodi:ry="8"
           d="m 624,460.36218 c 0,4.41828 -3.58172,8 -8,8 -4.41828,0 -8,-3.58172 -8,-8 0,-4.41828 3.58172,-8 8,-8 4.41828,0 8,3.58172 8,8 z"
           transform="translate(-176,279.99999)" />
      </g>
      <g
         transform="translate(96,32.00001)"
         id="g4133">
        <path
           sodipodi:nodetypes="ccccc"
           inkscape:connector-curvature="0"
           id="path4135"
           d="m 408,740.36217 16,8 16,-8 -16,-8 z"
           style="fill:#808080;stroke:none" />
        <path
           style="fill:#808080;stroke:none"
           d="m 440,740.36217 16,8 16,-8 -16,-8 z"
           id="path4137"
           inkscape:connector-curvature="0"
           sodipodi:nodetypes="ccccc" />
        <path
           sodipodi:nodetypes="ccccc"
           inkscape:connector-curvature="0"
           id="path4139"
           d="m 432,724.36217 8,16 8,-16 -8,-16 z"
           style="fill:#808080;stroke:none" />
        <path
           style="fill:#808080;stroke:none"
           d="m 432,756.36217 8,16 8,-16 -8,-16 z"
           id="path4141"
           inkscape:connector-curvature="0"
           sodipodi:nodetypes="ccccc" />
        <path
           transform="translate(-176,279.99999)"
           d="m 624,460.36218 c 0,4.41828 -3.58172,8 -8,8 -4.41828,0 -8,-3.58172 -8,-8 0,-4.41828 3.58172,-8 8,-8 4.41828,0 8,3.58172 8,8 z"
           sodipodi:ry="8"
           sodipodi:rx="8"
           sodipodi:cy="460.36218"
           sodipodi:cx="616"
           id="path4143"
           style="color:#000000;fill:#4d4d4d;fill-opacity:1;fill-rule:nonzero;stroke:none;stroke-width:2;marker:none;visibility:visible;display:inline;overflow:visible;enable-background:accumulate"
           sodipodi:type="arc" />
      </g>
      <g
         id="g4145"
         transform="translate(96,96.000013)">
        <path
           style="fill:#808080;stroke:none"
           d="m 408,740.36217 16,8 16,-8 -16,-8 z"
           id="path4147"
           inkscape:connector-curvature="0"
           sodipodi:nodetypes="ccccc" />
        <path
           sodipodi:nodetypes="ccccc"
           inkscape:connector-curvature="0"
           id="path4149"
           d="m 440,740.36217 16,8 16,-8 -16,-8 z"
           style="fill:#808080;stroke:none" />
        <path
           style="fill:#808080;stroke:none"
           d="m 432,724.36217 8,16 8,-16 -8,-16 z"
           id="path4151"
           inkscape:connector-curvature="0"
           sodipodi:nodetypes="ccccc" />
        <path
           sodipodi:nodetypes="ccccc"
           inkscape:connector-curvature="0"
           id="path4153"
           d="m 432,756.36217 8,16 8,-16 -8,-16 z"
           style="fill:#808080;stroke:none" />
        <path
           sodipodi:type="arc"
           style="color:#000000;fill:#4d4d4d;fill-opacity:1;fill-rule:nonzero;stroke:none;stroke-width:2;marker:none;visibility:visible;display:inline;overflow:visible;enable-background:accumulate"
           id="path4155"
           sodipodi:cx="616"
           sodipodi:cy="460.36218"
           sodipodi:rx="8"
           sodipodi:ry="8"
           d="m 624,460.36218 c 0,4.41828 -3.58172,8 -8,8 -4.41828,0 -8,-3.58172 -8,-8 0,-4.41828 3.58172,-8 8,-8 4.41828,0 8,3.58172 8,8 z"
           transform="translate(-176,279.99999)" />
      </g>
      <g
         transform="translate(32,96.00001)"
         id="g4157">
        <path
           sodipodi:nodetypes="ccccc"
           inkscape:connector-curvature="0"
           id="path4159"
           d="m 408,740.36217 16,8 16,-8 -16,-8 z"
           style="fill:#808080;stroke:none" />
        <path
           style="fill:#808080;stroke:none"
           d="m 440,740.36217 16,8 16,-8 -16,-8 z"
           id="path4161"
           inkscape:connector-curvature="0"
           sodipodi:nodetypes="ccccc" />
        <path
           sodipodi:nodetypes="ccccc"
           inkscape:connector-curvature="0"
           id="path4163"
           d="m 432,724.36217 8,16 8,-16 -8,-16 z"
           style="fill:#808080;stroke:none" />
        <path
           style="fill:#808080;stroke:none"
           d="m 432,756.36217 8,16 8,-16 -8,-16 z"
           id="path4165"
           inkscape:connector-curvature="0"
           sodipodi:nodetypes="ccccc" />
        <path
           transform="translate(-176,279.99999)"
           d="m 624,460.36218 c 0,4.41828 -3.58172,8 -8,8 -4.41828,0 -8,-3.58172 -8,-8 0,-4.41828 3.58172,-8 8,-8 4.41828,0 8,3.58172 8,8 z"
           sodipodi:ry="8"
           sodipodi:rx="8"
           sodipodi:cy="460.36218"
           sodipodi:cx="616"
           id="path4167"
           style="color:#000000;fill:#4d4d4d;fill-opacity:1;fill-rule:nonzero;stroke:none;stroke-width:2;marker:none;visibility:visible;display:inline;overflow:visible;enable-background:accumulate"
           sodipodi:type="arc" />
      </g>
      <g
         id="g4169"
         transform="translate(-32,96.00001)">
        <path
           style="fill:#808080;stroke:none"
           d="m 408,740.36217 16,8 16,-8 -16,-8 z"
           id="path4171"
           inkscape:connector-curvature="0"
           sodipodi:nodetypes="ccccc" />
        <path
           sodipodi:nodetypes="ccccc"
           inkscape:connector-curvature="0"
           id="path4173"
           d="m 440,740.36217 16,8 16,-8 -16,-8 z"
           style="fill:#808080;stroke:none" />
        <path
           style="fill:#808080;stroke:none"
           d="m 432,724.36217 8,16 8,-16 -8,-16 z"
           id="path4175"
           inkscape:connector-curvature="0"
           sodipodi:nodetypes="ccccc" />
        <path
           sodipodi:nodetypes="ccccc"
           inkscape:connector-curvature="0"
           id="path4177"
           d="m 432,756.36217 8,16 8,-16 -8,-16 z"
           style="fill:#808080;stroke:none" />
        <path
           sodipodi:type="arc"
           style="color:#000000;fill:#4d4d4d;fill-opacity:1;fill-rule:nonzero;stroke:none;stroke-width:2;marker:none;visibility:visible;display:inline;overflow:visible;enable-background:accumulate"
           id="path4179"
           sodipodi:cx="616"
           sodipodi:cy="460.36218"
           sodipodi:rx="8"
           sodipodi:ry="8"
           d="m 624,460.36218 c 0,4.41828 -3.58172,8 -8,8 -4.41828,0 -8,-3.58172 -8,-8 0,-4.41828 3.58172,-8 8,-8 4.41828,0 8,3.58172 8,8 z"
           transform="translate(-176,279.99999)" />
      </g>
    </g>
  </g>
</svg>
